<svg xmlns="http://www.w3.org/2000/svg" width="1200" height="502" viewBox="0 0 1200 502">
    
    <defs>
      <radialGradient id="bg-b7v1" cx="46%" cy="38%" r="76%">
        <stop offset="0%" stop-color="#3a2b12"/>
        <stop offset="100%" stop-color="#080605"/>
      </radialGradient>
      <linearGradient id="flare-b7v1" x1="0" x2="1">
        <stop offset="0%" stop-color="#f2b53c" stop-opacity="0"/>
        <stop offset="48%" stop-color="#f2b53c" stop-opacity="0.55"/>
        <stop offset="100%" stop-color="#f2b53c" stop-opacity="0"/>
      </linearGradient>
      <filter id="grain-b7v1">
        <feTurbulence type="fractalNoise" baseFrequency="0.9" numOctaves="2"/>
        <feColorMatrix values="0 0 0 0 0.93 0 0 0 0 0.9 0 0 0 0 0.82 0 0 0 0.16 0"/>
      </filter>
    </defs>
    <rect width="1200" height="502" fill="url(#bg-b7v1)"/>
    <rect width="1200" height="502" filter="url(#grain-b7v1)" opacity="0.7"/>
    <rect y="0" width="1200" height="54" fill="#000" opacity="0.58"/>
    <rect y="448" width="1200" height="54" fill="#000" opacity="0.58"/>
    <g opacity="0.72" transform="translate(140 36) scale(0.95)"><rect x="430" y="70" width="190" height="280" fill="#09090a" stroke="#f2b53c" stroke-opacity="0.35"/><line x1="525" y1="70" x2="525" y2="350" stroke="#f2b53c" opacity="0.25"/><line x1="430" y1="210" x2="620" y2="210" stroke="#f2b53c" opacity="0.25"/></g>
    <path d="M0 340 L1200 154" stroke="url(#flare-b7v1)" stroke-width="27" opacity="0.28"/>
    <path d="M270 430 C285 250 365 250 380 430 Z" fill="#050507" opacity="0.78"/>
    <ellipse cx="325" cy="234" rx="27.5" ry="33" fill="#0b0b0d" opacity="0.88"/>
    
    <rect x="28" y="28" width="1144" height="446" fill="none" stroke="#ede7d9" stroke-opacity="0.16" stroke-width="2"/>
    <path d="M28 96 H98 M28 28 V98 M1172 406 H1102 M1172 474 V404" stroke="#f2b53c" stroke-width="4" opacity="0.8"/>
    <text x="42" y="88" text-anchor="start" fill="#f2b53c" font-family="JetBrains Mono, monospace" font-size="15" letter-spacing="3">B07 / V01 / WIDE</text>
    <text x="42" y="434" text-anchor="start" fill="#ede7d9" font-family="JetBrains Mono, monospace" font-size="22" letter-spacing="3">THE LETTER</text>
    <text x="1158" y="88" text-anchor="end" fill="#ede7d9" font-family="JetBrains Mono, monospace" font-size="13" letter-spacing="3">MAYA</text>
  </svg>
