<svg xmlns="http://www.w3.org/2000/svg" width="1200" height="502" viewBox="0 0 1200 502">
    
    <defs>
      <radialGradient id="bg-b6v2" cx="46%" cy="38%" r="76%">
        <stop offset="0%" stop-color="#4a3515"/>
        <stop offset="100%" stop-color="#090604"/>
      </radialGradient>
      <linearGradient id="flare-b6v2" x1="0" x2="1">
        <stop offset="0%" stop-color="#ffc75a" stop-opacity="0"/>
        <stop offset="48%" stop-color="#ffc75a" stop-opacity="0.55"/>
        <stop offset="100%" stop-color="#ffc75a" stop-opacity="0"/>
      </linearGradient>
      <filter id="grain-b6v2">
        <feTurbulence type="fractalNoise" baseFrequency="0.9" numOctaves="2"/>
        <feColorMatrix values="0 0 0 0 0.93 0 0 0 0 0.9 0 0 0 0 0.82 0 0 0 0.16 0"/>
      </filter>
    </defs>
    <rect width="1200" height="502" fill="url(#bg-b6v2)"/>
    <rect width="1200" height="502" filter="url(#grain-b6v2)" opacity="0.7"/>
    <rect y="0" width="1200" height="54" fill="#000" opacity="0.58"/>
    <rect y="448" width="1200" height="54" fill="#000" opacity="0.58"/>
    <g opacity="0.72" transform="translate(140 36) scale(0.95)"><rect x="0" y="0" width="58" height="43" fill="#73562a" opacity="0.09"/><rect x="60" y="0" width="58" height="43" fill="#e3c98c" opacity="0.09"/><rect x="120" y="0" width="58" height="43" fill="#73562a" opacity="0.09"/><rect x="180" y="0" width="58" height="43" fill="#e3c98c" opacity="0.09"/><rect x="240" y="0" width="58" height="43" fill="#73562a" opacity="0.09"/><rect x="300" y="0" width="58" height="43" fill="#e3c98c" opacity="0.09"/><rect x="360" y="0" width="58" height="43" fill="#73562a" opacity="0.09"/><rect x="420" y="0" width="58" height="43" fill="#e3c98c" opacity="0.09"/><rect x="480" y="0" width="58" height="43" fill="#73562a" opacity="0.09"/><rect x="540" y="0" width="58" height="43" fill="#e3c98c" opacity="0.09"/><rect x="600" y="0" width="58" height="43" fill="#73562a" opacity="0.09"/><rect x="660" y="0" width="58" height="43" fill="#e3c98c" opacity="0.09"/><rect x="0" y="45" width="58" height="43" fill="#e3c98c" opacity="0.09"/><rect x="60" y="45" width="58" height="43" fill="#73562a" opacity="0.09"/><rect x="120" y="45" width="58" height="43" fill="#e3c98c" opacity="0.09"/><rect x="180" y="45" width="58" height="43" fill="#73562a" opacity="0.09"/><rect x="240" y="45" width="58" height="43" fill="#e3c98c" opacity="0.09"/><rect x="300" y="45" width="58" height="43" fill="#73562a" opacity="0.09"/><rect x="360" y="45" width="58" height="43" fill="#e3c98c" opacity="0.09"/><rect x="420" y="45" width="58" height="43" fill="#73562a" opacity="0.09"/><rect x="480" y="45" width="58" height="43" fill="#e3c98c" opacity="0.09"/><rect x="540" y="45" width="58" height="43" fill="#73562a" opacity="0.09"/><rect x="600" y="45" width="58" height="43" fill="#e3c98c" opacity="0.09"/><rect x="660" y="45" width="58" height="43" fill="#73562a" opacity="0.09"/><rect x="0" y="90" width="58" height="43" fill="#73562a" opacity="0.09"/><rect x="60" y="90" width="58" height="43" fill="#e3c98c" opacity="0.09"/><rect x="120" y="90" width="58" height="43" fill="#73562a" opacity="0.09"/><rect x="180" y="90" width="58" height="43" fill="#e3c98c" opacity="0.09"/><rect x="240" y="90" width="58" height="43" fill="#73562a" opacity="0.09"/><rect x="300" y="90" width="58" height="43" fill="#e3c98c" opacity="0.09"/><rect x="360" y="90" width="58" height="43" fill="#73562a" opacity="0.09"/><rect x="420" y="90" width="58" height="43" fill="#e3c98c" opacity="0.09"/><rect x="480" y="90" width="58" height="43" fill="#73562a" opacity="0.09"/><rect x="540" y="90" width="58" height="43" fill="#e3c98c" opacity="0.09"/><rect x="600" y="90" width="58" height="43" fill="#73562a" opacity="0.09"/><rect x="660" y="90" width="58" height="43" fill="#e3c98c" opacity="0.09"/><rect x="0" y="135" width="58" height="43" fill="#e3c98c" opacity="0.09"/><rect x="60" y="135" width="58" height="43" fill="#73562a" opacity="0.09"/><rect x="120" y="135" width="58" height="43" fill="#e3c98c" opacity="0.09"/><rect x="180" y="135" width="58" height="43" fill="#73562a" opacity="0.09"/><rect x="240" y="135" width="58" height="43" fill="#e3c98c" opacity="0.09"/><rect x="300" y="135" width="58" height="43" fill="#73562a" opacity="0.09"/><rect x="360" y="135" width="58" height="43" fill="#e3c98c" opacity="0.09"/><rect x="420" y="135" width="58" height="43" fill="#73562a" opacity="0.09"/><rect x="480" y="135" width="58" height="43" fill="#e3c98c" opacity="0.09"/><rect x="540" y="135" width="58" height="43" fill="#73562a" opacity="0.09"/><rect x="600" y="135" width="58" height="43" fill="#e3c98c" opacity="0.09"/><rect x="660" y="135" width="58" height="43" fill="#73562a" opacity="0.09"/><rect x="0" y="180" width="58" height="43" fill="#73562a" opacity="0.09"/><rect x="60" y="180" width="58" height="43" fill="#e3c98c" opacity="0.09"/><rect x="120" y="180" width="58" height="43" fill="#73562a" opacity="0.09"/><rect x="180" y="180" width="58" height="43" fill="#e3c98c" opacity="0.09"/><rect x="240" y="180" width="58" height="43" fill="#73562a" opacity="0.09"/><rect x="300" y="180" width="58" height="43" fill="#e3c98c" opacity="0.09"/><rect x="360" y="180" width="58" height="43" fill="#73562a" opacity="0.09"/><rect x="420" y="180" width="58" height="43" fill="#e3c98c" opacity="0.09"/><rect x="480" y="180" width="58" height="43" fill="#73562a" opacity="0.09"/><rect x="540" y="180" width="58" height="43" fill="#e3c98c" opacity="0.09"/><rect x="600" y="180" width="58" height="43" fill="#73562a" opacity="0.09"/><rect x="660" y="180" width="58" height="43" fill="#e3c98c" opacity="0.09"/><rect x="0" y="225" width="58" height="43" fill="#e3c98c" opacity="0.09"/><rect x="60" y="225" width="58" height="43" fill="#73562a" opacity="0.09"/><rect x="120" y="225" width="58" height="43" fill="#e3c98c" opacity="0.09"/><rect x="180" y="225" width="58" height="43" fill="#73562a" opacity="0.09"/><rect x="240" y="225" width="58" height="43" fill="#e3c98c" opacity="0.09"/><rect x="300" y="225" width="58" height="43" fill="#73562a" opacity="0.09"/><rect x="360" y="225" width="58" height="43" fill="#e3c98c" opacity="0.09"/><rect x="420" y="225" width="58" height="43" fill="#73562a" opacity="0.09"/><rect x="480" y="225" width="58" height="43" fill="#e3c98c" opacity="0.09"/><rect x="540" y="225" width="58" height="43" fill="#73562a" opacity="0.09"/><rect x="600" y="225" width="58" height="43" fill="#e3c98c" opacity="0.09"/><rect x="660" y="225" width="58" height="43" fill="#73562a" opacity="0.09"/><rect x="0" y="270" width="58" height="43" fill="#73562a" opacity="0.09"/><rect x="60" y="270" width="58" height="43" fill="#e3c98c" opacity="0.09"/><rect x="120" y="270" width="58" height="43" fill="#73562a" opacity="0.09"/><rect x="180" y="270" width="58" height="43" fill="#e3c98c" opacity="0.09"/><rect x="240" y="270" width="58" height="43" fill="#73562a" opacity="0.09"/><rect x="300" y="270" width="58" height="43" fill="#e3c98c" opacity="0.09"/><rect x="360" y="270" width="58" height="43" fill="#73562a" opacity="0.09"/><rect x="420" y="270" width="58" height="43" fill="#e3c98c" opacity="0.09"/><rect x="480" y="270" width="58" height="43" fill="#73562a" opacity="0.09"/><rect x="540" y="270" width="58" height="43" fill="#e3c98c" opacity="0.09"/><rect x="600" y="270" width="58" height="43" fill="#73562a" opacity="0.09"/><rect x="660" y="270" width="58" height="43" fill="#e3c98c" opacity="0.09"/><rect x="0" y="315" width="58" height="43" fill="#e3c98c" opacity="0.09"/><rect x="60" y="315" width="58" height="43" fill="#73562a" opacity="0.09"/><rect x="120" y="315" width="58" height="43" fill="#e3c98c" opacity="0.09"/><rect x="180" y="315" width="58" height="43" fill="#73562a" opacity="0.09"/><rect x="240" y="315" width="58" height="43" fill="#e3c98c" opacity="0.09"/><rect x="300" y="315" width="58" height="43" fill="#73562a" opacity="0.09"/><rect x="360" y="315" width="58" height="43" fill="#e3c98c" opacity="0.09"/><rect x="420" y="315" width="58" height="43" fill="#73562a" opacity="0.09"/><rect x="480" y="315" width="58" height="43" fill="#e3c98c" opacity="0.09"/><rect x="540" y="315" width="58" height="43" fill="#73562a" opacity="0.09"/><rect x="600" y="315" width="58" height="43" fill="#e3c98c" opacity="0.09"/><rect x="660" y="315" width="58" height="43" fill="#73562a" opacity="0.09"/></g>
    <path d="M0 320 L1200 188" stroke="url(#flare-b6v2)" stroke-width="34" opacity="0.28"/>
    <path d="M420 430 C435 250 565 250 580 430 Z" fill="#050507" opacity="0.78"/>
    <ellipse cx="500" cy="234" rx="40" ry="48" fill="#0b0b0d" opacity="0.88"/>
    <path d="M730 430 C742 285 838 285 850 430 Z" fill="#08080a" opacity="0.64"/>
    <rect x="28" y="28" width="1144" height="446" fill="none" stroke="#ede7d9" stroke-opacity="0.16" stroke-width="2"/>
    <path d="M28 96 H98 M28 28 V98 M1172 406 H1102 M1172 474 V404" stroke="#ffc75a" stroke-width="4" opacity="0.8"/>
    <text x="42" y="88" text-anchor="start" fill="#ffc75a" font-family="JetBrains Mono, monospace" font-size="15" letter-spacing="3">B06 / V02 / MEDIUM</text>
    <text x="42" y="434" text-anchor="start" fill="#ede7d9" font-family="JetBrains Mono, monospace" font-size="22" letter-spacing="3">LISBON MEETING</text>
    <text x="1158" y="88" text-anchor="end" fill="#ede7d9" font-family="JetBrains Mono, monospace" font-size="13" letter-spacing="3">MARCUS + RAFA</text>
  </svg>
