<svg xmlns="http://www.w3.org/2000/svg" width="1200" height="502" viewBox="0 0 1200 502">
    
    <defs>
      <radialGradient id="bg-b1v2" cx="46%" cy="38%" r="76%">
        <stop offset="0%" stop-color="#192433"/>
        <stop offset="100%" stop-color="#05070a"/>
      </radialGradient>
      <linearGradient id="flare-b1v2" x1="0" x2="1">
        <stop offset="0%" stop-color="#7fa7bc" stop-opacity="0"/>
        <stop offset="48%" stop-color="#7fa7bc" stop-opacity="0.55"/>
        <stop offset="100%" stop-color="#7fa7bc" stop-opacity="0"/>
      </linearGradient>
      <filter id="grain-b1v2">
        <feTurbulence type="fractalNoise" baseFrequency="0.9" numOctaves="2"/>
        <feColorMatrix values="0 0 0 0 0.93 0 0 0 0 0.9 0 0 0 0 0.82 0 0 0 0.16 0"/>
      </filter>
    </defs>
    <rect width="1200" height="502" fill="url(#bg-b1v2)"/>
    <rect width="1200" height="502" filter="url(#grain-b1v2)" opacity="0.7"/>
    <rect y="0" width="1200" height="54" fill="#000" opacity="0.58"/>
    <rect y="448" width="1200" height="54" fill="#000" opacity="0.58"/>
    <g opacity="0.72" transform="translate(140 36) scale(0.95)"><rect x="70" y="305" width="190" height="110" fill="#0b0d11" opacity="0.7"/><rect x="285" y="270" width="210" height="150" fill="#11151a" opacity="0.75"/><rect x="520" y="325" width="130" height="90" fill="#090b0e" opacity="0.7"/></g>
    <path d="M0 320 L1200 188" stroke="url(#flare-b1v2)" stroke-width="34" opacity="0.28"/>
    <path d="M420 430 C435 250 565 250 580 430 Z" fill="#050507" opacity="0.78"/>
    <ellipse cx="500" cy="234" rx="40" ry="48" fill="#0b0b0d" opacity="0.88"/>
    <path d="M730 430 C742 285 838 285 850 430 Z" fill="#08080a" opacity="0.64"/>
    <rect x="28" y="28" width="1144" height="446" fill="none" stroke="#ede7d9" stroke-opacity="0.16" stroke-width="2"/>
    <path d="M28 96 H98 M28 28 V98 M1172 406 H1102 M1172 474 V404" stroke="#7fa7bc" stroke-width="4" opacity="0.8"/>
    <text x="42" y="88" text-anchor="start" fill="#7fa7bc" font-family="JetBrains Mono, monospace" font-size="15" letter-spacing="3">B01 / V02 / MEDIUM</text>
    <text x="42" y="434" text-anchor="start" fill="#ede7d9" font-family="JetBrains Mono, monospace" font-size="22" letter-spacing="3">BODY DISCOVERY</text>
    <text x="1158" y="88" text-anchor="end" fill="#ede7d9" font-family="JetBrains Mono, monospace" font-size="13" letter-spacing="3">MARCUS + REYES</text>
  </svg>
