<svg xmlns="http://www.w3.org/2000/svg" width="960" height="600" viewBox="0 0 960 600">
    
    <defs>
      <radialGradient id="bg-cafe" cx="46%" cy="38%" r="76%">
        <stop offset="0%" stop-color="#4a3515"/>
        <stop offset="100%" stop-color="#090604"/>
      </radialGradient>
      <linearGradient id="flare-cafe" x1="0" x2="1">
        <stop offset="0%" stop-color="#ffc75a" stop-opacity="0"/>
        <stop offset="48%" stop-color="#ffc75a" stop-opacity="0.55"/>
        <stop offset="100%" stop-color="#ffc75a" stop-opacity="0"/>
      </linearGradient>
      <filter id="grain-cafe">
        <feTurbulence type="fractalNoise" baseFrequency="0.9" numOctaves="2"/>
        <feColorMatrix values="0 0 0 0 0.93 0 0 0 0 0.9 0 0 0 0 0.82 0 0 0 0.16 0"/>
      </filter>
    </defs>
    <rect width="960" height="600" fill="url(#bg-cafe)"/>
    <rect width="960" height="600" filter="url(#grain-cafe)" opacity="0.65"/>
    <rect y="0" width="960" height="58" fill="#000" opacity="0.54"/>
    <rect y="542" width="960" height="58" fill="#000" opacity="0.54"/>
    <g transform="translate(120 70) scale(1.0)"><rect x="0" y="0" width="58" height="43" fill="#73562a" opacity="0.09"/><rect x="60" y="0" width="58" height="43" fill="#e3c98c" opacity="0.09"/><rect x="120" y="0" width="58" height="43" fill="#73562a" opacity="0.09"/><rect x="180" y="0" width="58" height="43" fill="#e3c98c" opacity="0.09"/><rect x="240" y="0" width="58" height="43" fill="#73562a" opacity="0.09"/><rect x="300" y="0" width="58" height="43" fill="#e3c98c" opacity="0.09"/><rect x="360" y="0" width="58" height="43" fill="#73562a" opacity="0.09"/><rect x="420" y="0" width="58" height="43" fill="#e3c98c" opacity="0.09"/><rect x="480" y="0" width="58" height="43" fill="#73562a" opacity="0.09"/><rect x="540" y="0" width="58" height="43" fill="#e3c98c" opacity="0.09"/><rect x="600" y="0" width="58" height="43" fill="#73562a" opacity="0.09"/><rect x="660" y="0" width="58" height="43" fill="#e3c98c" opacity="0.09"/><rect x="0" y="45" width="58" height="43" fill="#e3c98c" opacity="0.09"/><rect x="60" y="45" width="58" height="43" fill="#73562a" opacity="0.09"/><rect x="120" y="45" width="58" height="43" fill="#e3c98c" opacity="0.09"/><rect x="180" y="45" width="58" height="43" fill="#73562a" opacity="0.09"/><rect x="240" y="45" width="58" height="43" fill="#e3c98c" opacity="0.09"/><rect x="300" y="45" width="58" height="43" fill="#73562a" opacity="0.09"/><rect x="360" y="45" width="58" height="43" fill="#e3c98c" opacity="0.09"/><rect x="420" y="45" width="58" height="43" fill="#73562a" opacity="0.09"/><rect x="480" y="45" width="58" height="43" fill="#e3c98c" opacity="0.09"/><rect x="540" y="45" width="58" height="43" fill="#73562a" opacity="0.09"/><rect x="600" y="45" width="58" height="43" fill="#e3c98c" opacity="0.09"/><rect x="660" y="45" width="58" height="43" fill="#73562a" opacity="0.09"/><rect x="0" y="90" width="58" height="43" fill="#73562a" opacity="0.09"/><rect x="60" y="90" width="58" height="43" fill="#e3c98c" opacity="0.09"/><rect x="120" y="90" width="58" height="43" fill="#73562a" opacity="0.09"/><rect x="180" y="90" width="58" height="43" fill="#e3c98c" opacity="0.09"/><rect x="240" y="90" width="58" height="43" fill="#73562a" opacity="0.09"/><rect x="300" y="90" width="58" height="43" fill="#e3c98c" opacity="0.09"/><rect x="360" y="90" width="58" height="43" fill="#73562a" opacity="0.09"/><rect x="420" y="90" width="58" height="43" fill="#e3c98c" opacity="0.09"/><rect x="480" y="90" width="58" height="43" fill="#73562a" opacity="0.09"/><rect x="540" y="90" width="58" height="43" fill="#e3c98c" opacity="0.09"/><rect x="600" y="90" width="58" height="43" fill="#73562a" opacity="0.09"/><rect x="660" y="90" width="58" height="43" fill="#e3c98c" opacity="0.09"/><rect x="0" y="135" width="58" height="43" fill="#e3c98c" opacity="0.09"/><rect x="60" y="135" width="58" height="43" fill="#73562a" opacity="0.09"/><rect x="120" y="135" width="58" height="43" fill="#e3c98c" opacity="0.09"/><rect x="180" y="135" width="58" height="43" fill="#73562a" opacity="0.09"/><rect x="240" y="135" width="58" height="43" fill="#e3c98c" opacity="0.09"/><rect x="300" y="135" width="58" height="43" fill="#73562a" opacity="0.09"/><rect x="360" y="135" width="58" height="43" fill="#e3c98c" opacity="0.09"/><rect x="420" y="135" width="58" height="43" fill="#73562a" opacity="0.09"/><rect x="480" y="135" width="58" height="43" fill="#e3c98c" opacity="0.09"/><rect x="540" y="135" width="58" height="43" fill="#73562a" opacity="0.09"/><rect x="600" y="135" width="58" height="43" fill="#e3c98c" opacity="0.09"/><rect x="660" y="135" width="58" height="43" fill="#73562a" opacity="0.09"/><rect x="0" y="180" width="58" height="43" fill="#73562a" opacity="0.09"/><rect x="60" y="180" width="58" height="43" fill="#e3c98c" opacity="0.09"/><rect x="120" y="180" width="58" height="43" fill="#73562a" opacity="0.09"/><rect x="180" y="180" width="58" height="43" fill="#e3c98c" opacity="0.09"/><rect x="240" y="180" width="58" height="43" fill="#73562a" opacity="0.09"/><rect x="300" y="180" width="58" height="43" fill="#e3c98c" opacity="0.09"/><rect x="360" y="180" width="58" height="43" fill="#73562a" opacity="0.09"/><rect x="420" y="180" width="58" height="43" fill="#e3c98c" opacity="0.09"/><rect x="480" y="180" width="58" height="43" fill="#73562a" opacity="0.09"/><rect x="540" y="180" width="58" height="43" fill="#e3c98c" opacity="0.09"/><rect x="600" y="180" width="58" height="43" fill="#73562a" opacity="0.09"/><rect x="660" y="180" width="58" height="43" fill="#e3c98c" opacity="0.09"/><rect x="0" y="225" width="58" height="43" fill="#e3c98c" opacity="0.09"/><rect x="60" y="225" width="58" height="43" fill="#73562a" opacity="0.09"/><rect x="120" y="225" width="58" height="43" fill="#e3c98c" opacity="0.09"/><rect x="180" y="225" width="58" height="43" fill="#73562a" opacity="0.09"/><rect x="240" y="225" width="58" height="43" fill="#e3c98c" opacity="0.09"/><rect x="300" y="225" width="58" height="43" fill="#73562a" opacity="0.09"/><rect x="360" y="225" width="58" height="43" fill="#e3c98c" opacity="0.09"/><rect x="420" y="225" width="58" height="43" fill="#73562a" opacity="0.09"/><rect x="480" y="225" width="58" height="43" fill="#e3c98c" opacity="0.09"/><rect x="540" y="225" width="58" height="43" fill="#73562a" opacity="0.09"/><rect x="600" y="225" width="58" height="43" fill="#e3c98c" opacity="0.09"/><rect x="660" y="225" width="58" height="43" fill="#73562a" opacity="0.09"/><rect x="0" y="270" width="58" height="43" fill="#73562a" opacity="0.09"/><rect x="60" y="270" width="58" height="43" fill="#e3c98c" opacity="0.09"/><rect x="120" y="270" width="58" height="43" fill="#73562a" opacity="0.09"/><rect x="180" y="270" width="58" height="43" fill="#e3c98c" opacity="0.09"/><rect x="240" y="270" width="58" height="43" fill="#73562a" opacity="0.09"/><rect x="300" y="270" width="58" height="43" fill="#e3c98c" opacity="0.09"/><rect x="360" y="270" width="58" height="43" fill="#73562a" opacity="0.09"/><rect x="420" y="270" width="58" height="43" fill="#e3c98c" opacity="0.09"/><rect x="480" y="270" width="58" height="43" fill="#73562a" opacity="0.09"/><rect x="540" y="270" width="58" height="43" fill="#e3c98c" opacity="0.09"/><rect x="600" y="270" width="58" height="43" fill="#73562a" opacity="0.09"/><rect x="660" y="270" width="58" height="43" fill="#e3c98c" opacity="0.09"/><rect x="0" y="315" width="58" height="43" fill="#e3c98c" opacity="0.09"/><rect x="60" y="315" width="58" height="43" fill="#73562a" opacity="0.09"/><rect x="120" y="315" width="58" height="43" fill="#e3c98c" opacity="0.09"/><rect x="180" y="315" width="58" height="43" fill="#73562a" opacity="0.09"/><rect x="240" y="315" width="58" height="43" fill="#e3c98c" opacity="0.09"/><rect x="300" y="315" width="58" height="43" fill="#73562a" opacity="0.09"/><rect x="360" y="315" width="58" height="43" fill="#e3c98c" opacity="0.09"/><rect x="420" y="315" width="58" height="43" fill="#73562a" opacity="0.09"/><rect x="480" y="315" width="58" height="43" fill="#e3c98c" opacity="0.09"/><rect x="540" y="315" width="58" height="43" fill="#73562a" opacity="0.09"/><rect x="600" y="315" width="58" height="43" fill="#e3c98c" opacity="0.09"/><rect x="660" y="315" width="58" height="43" fill="#73562a" opacity="0.09"/></g>
    <path d="M0 460 L960 260" stroke="url(#flare-cafe)" stroke-width="26" opacity="0.2"/>
    <rect x="28" y="28" width="904" height="544" fill="none" stroke="#ede7d9" stroke-opacity="0.16" stroke-width="2"/>
    <text x="36" y="536" text-anchor="start" fill="#ede7d9" font-family="JetBrains Mono, monospace" font-size="22" letter-spacing="3">LISBON CAFE</text>
    <text x="36" y="74" text-anchor="start" fill="#ffc75a" font-family="JetBrains Mono, monospace" font-size="14" letter-spacing="3">LOCATION PLACEHOLDER</text>
  </svg>
